<?xml version="1.0" encoding="UTF-8" standalone="no"?>
<svg
 xmlns:dc="http://purl.org/dc/elements/1.1/"
 xmlns:cc="http://creativecommons.org/ns#"
 xmlns:rdf="http://www.w3.org/1999/02/22-rdf-syntax-ns#"
 xmlns:svg="http://www.w3.org/2000/svg"
 xmlns="http://www.w3.org/2000/svg"
 version="1.1"
 x="300px"
 y="300px"
 viewBox="0 0 300 300"
 style="enable-background:new 0 0 300 300;"
 xml:space="preserve"
 id="svg108">
 <metadata id="metadata114">
  <rdf:RDF>
    <cc:Work rdf:about="">
      <dc:format>image/svg+xml</dc:format>
      <dc:type rdf:resource="http://purl.org/dc/dcmitype/StillImage" />
      <dc:title></dc:title>
    </cc:Work>
  </rdf:RDF>
</metadata>
<defs id="defs112">
  <defs id="defs21"></defs>
</defs>
<style
 type="text/css"
 id="style10">
 .st0{fill:#8AB290;}
 .st1{fill:#6F9E74;}
 .st2{fill:#FFD6AE;}
 .st3{fill:#FFBC92;}
 .st4{fill:#FFCC95;}
 .st5{fill:#0055D4;stroke:#0055D4;stroke-width:10.3227;stroke-linecap:round;stroke-linejoin:round;stroke-miterlimit:31.2586;}
 .st22{fill:#0055D4;stroke:#0055D4;stroke-width:10.3227;stroke-linecap:round;stroke-linejoin:round;stroke-miterlimit:31.2586;}
 .st6{fill-rule:evenodd;clip-rule:evenodd;fill:#0055D4;stroke:#00CED4;stroke-width:0.827;stroke-linecap:round;stroke-miterlimit:31.2586;}
 .st7{fill:#F4A67A;}
 .st8{fill:#F2B368;}
 .st9{fill:none;stroke:#FFBC92;stroke-width:0.172;stroke-linecap:round;}
 .st10{opacity:0.77;fill:#D38E5F;}
 .st11{opacity:0.4;fill:#BF853A;enable-background:new;}
 .st12{opacity:0.77;fill:#B75818;}
 .st13{opacity:0.77;fill:#CEA395;}
 .st14{opacity:0.58;fill:#A58772;}
 .st15{opacity:0.78;fill:#C9C9E2;}
 .st16{opacity:0.56;fill:#91674A;}
 .st17{opacity:0.56;fill:#B25618;}
 .st18{opacity:0.56;fill:#C9C9E2;}
 .st19{opacity:0.69;enable-background:new;}
 .st20{opacity:0.63;fill:none;stroke:#E897CD;stroke-width:5;stroke-linecap:round;stroke-linejoin:round;stroke-miterlimit:15.1181;}
 .st21{fill:#FFC950;}
</style>
<g id="layer2" style="">
  <circle id="circle24" r="147.2" cy="150" cx="150" class="st0" style="fill:#c6afe9" />
  <circle id="circle26" r="141" cy="147.5" cx="153.10001" class="st1" style="fill:#7137c8" />
</g>
<g id="layer1" style="">
  <path style="opacity:0.7;fill:#c6c4de;fill-opacity:1;stroke-width:0.992228" d="m 200.09689,130.80797 c 3.65485,1.09281 10.46778,2.88815 13.21289,7.2168 3.93454,6.1555 -4.41542,10.157 0.38281,16.3125 0.38386,0.41037 6.33374,8.31086 4.99023,17.23633 -0.86368,5.95032 -4.22148,6.97589 -3.93359,12.10547 0.28789,5.43736 4.12655,5.6418 4.99023,10.97656 1.24754,7.18142 -2.86279,-1.29159 -3.24665,9.17276 -0.19193,5.43736 10.03825,19.5541 8.31089,20.88779 -0.38386,0.30778 -9.84637,3.61671 -16.18003,0.94933 -7.79601,-0.88047 -9.13238,-5.77189 -9.80413,-7.10558 -1.3435,-2.76997 0.95911,-4.92377 1.63086,-10.77149 0.67175,-5.64255 -1.15156,-6.36134 -1.43945,-13.95312 -0.38386,-8.00215 1.5362,-8.82188 1.15234,-15.28516 -0.38386,-6.87364 -9.98084,-8.00282 -11.99609,-12.00391 -5.14901,-9.90826 0.10121,-19.46875 -5.61256,-29.09989 2.92902,-2.49201 3.99782,2.34656 7.06959,0.0257 1.97907,-1.4953 3.90626,-3.07419 6.00977,-4.38868 0.64775,-0.40479 1.44919,-0.48306 2.17382,-0.72461 1.12318,-0.37439 1.86282,-0.93901 2.28907,-1.55078 z" id="path144390" />
  <path style="opacity:0.7;fill:#c6c4de;fill-opacity:1;stroke-width:0.992228" d="m 202.51235,126.94324 c 3.65485,1.09281 10.46778,2.88815 13.21289,7.2168 3.93454,6.1555 -4.41542,10.157 0.38281,16.3125 0.38386,0.41037 6.33374,8.31086 4.99023,17.23633 -0.86368,5.95032 -4.22148,6.97589 -3.93359,12.10547 0.28789,5.43736 4.12655,5.6418 4.99023,10.97656 1.24754,7.18142 -2.86279,-1.29159 -3.24665,9.17276 -0.19193,5.43736 10.03825,19.5541 8.31089,20.88779 -0.38386,0.30778 -9.84637,3.61671 -16.18003,0.94933 -7.79601,-0.88047 -9.13238,-5.77189 -9.80413,-7.10558 -1.3435,-2.76997 0.95911,-4.92377 1.63086,-10.77149 0.67175,-5.64255 -1.15156,-6.36134 -1.43945,-13.95312 -0.38386,-8.00215 1.5362,-8.82188 1.15234,-15.28516 -0.38386,-6.87364 -9.98084,-8.00282 -11.99609,-12.00391 -5.14901,-9.90826 0.10121,-19.46875 -5.61256,-29.09989 2.92902,-2.49201 3.99782,2.34656 7.06959,0.0257 1.97907,-1.4953 3.90626,-3.07419 6.00976,-4.38868 0.64776,-0.40479 1.4492,-0.48306 2.17383,-0.72461 1.12318,-0.37439 1.86282,-0.93901 2.28907,-1.55078 z" id="path144392" />
  <path style="opacity:0.7;fill:#c6c4de;fill-opacity:1;stroke-width:0.992228" d="m 87.665632,123.10585 c -3.654851,1.09281 -10.467787,2.88815 -13.21289,7.2168 -3.934544,6.1555 4.415412,10.157 -0.382813,16.3125 -0.383858,0.41037 -6.333737,8.31086 -4.990234,17.23633 0.863681,5.95032 4.221487,6.97589 3.933594,12.10547 -0.287894,5.43736 -4.126555,5.6418 -4.990235,10.97656 -1.247538,7.18142 2.862793,-1.29159 3.246651,9.17276 0.191929,5.43736 -10.03825,19.5541 -8.31089,20.88779 0.38386,0.30778 9.846373,3.61671 16.18003,0.94933 7.79601,-0.88047 9.132379,-5.77189 9.804131,-7.10558 1.343503,-2.76997 -0.959107,-4.92377 -1.630859,-10.77149 -0.671751,-5.64255 1.151559,-6.36134 1.439453,-13.95312 0.383858,-8.00215 -1.536202,-8.82188 -1.152344,-15.28516 0.383858,-6.87364 9.980841,-8.00282 11.996091,-12.00391 5.149013,-9.90826 -0.10121,-19.46875 5.612563,-29.09989 -2.92902,-2.49201 -3.99782,2.34656 -7.069593,0.0257 -1.979068,-1.4953 -3.906258,-3.07419 -6.009764,-4.38868 -0.647759,-0.40479 -1.449191,-0.48306 -2.173828,-0.72461 -1.123176,-0.37439 -1.862815,-0.93901 -2.289063,-1.55078 z" id="path144388" />
  <path style="opacity:0.7;fill:#c6c4de;fill-opacity:1;stroke-width:0.992228" d="m 87.182541,116.82566 c -3.654851,1.09281 -10.467787,2.88815 -13.21289,7.2168 -3.934544,6.1555 4.415412,10.157 -0.382813,16.3125 -0.383858,0.41037 -6.333737,8.31086 -4.990234,17.23633 0.863681,5.95032 4.221487,6.97589 3.933594,12.10547 -0.287894,5.43736 -4.126555,5.6418 -4.990235,10.97656 -1.247538,7.18142 2.862793,-1.29159 3.246651,9.17276 0.191929,5.43736 -10.03825,19.5541 -8.31089,20.88779 0.38386,0.30778 9.846373,3.61671 16.18003,0.94933 7.79601,-0.88047 9.132379,-5.77189 9.804131,-7.10558 1.343503,-2.76997 -0.959107,-4.92377 -1.630859,-10.77149 -0.671751,-5.64255 1.151559,-6.36134 1.439453,-13.95312 0.383858,-8.00215 -1.536202,-8.82188 -1.152344,-15.28516 0.383858,-6.87364 9.980839,-8.00282 11.99609,-12.00391 5.149005,-9.90826 -0.10121,-19.46875 5.612555,-29.09989 -2.92902,-2.49201 -3.99782,2.34656 -7.069582,0.0257 -1.97907,-1.4953 -3.90626,-3.07419 -6.009766,-4.38868 -0.647759,-0.40479 -1.449191,-0.48306 -2.173828,-0.72461 -1.123176,-0.37439 -1.862815,-0.93901 -2.289063,-1.55078 z" id="path144386" />
  <path d="m 225.8,138.09911 c 4.9,0 8.9,7.3 8.9,16.3 0,7 -2.4,13.2 -6.1,15.4 0.3,1.5 0.4,3.1 0.4,4.7 0,7.2 -2.9,13 -6.6,13 -3.6,0 -6.6,-5.8 -6.6,-13 0,-4.1 1,-8 2.7,-10.5 -1.1,-2.8 -1.7,-6.2 -1.7,-9.6 0.1,-9 4.1,-16.3 9,-16.3 z" class="st3" id="path5026" style="fill:#ffbc92" />
  <path d="m 67.225618,137.60398 c -5.2,0 -9.4,7.7 -9.4,17.2 0,7.4 2.6,13.9 6.4,16.3 -0.3,1.6 -0.5,3.2 -0.5,4.9 0,7.6 3.1,13.7 6.9,13.7 3.8,0 6.9,-6.2 6.9,-13.7 0,-4.4 -1.1,-8.5 -2.8,-11 1.2,-2.9 1.8,-6.5 1.8,-10.1 0.1,-9.6 -4.1,-17.3 -9.3,-17.3 z" class="st3" id="path4995" style="fill:#ffbc92" />
  <path style="fill:#ffcc95;stroke-width:6.89837" d="m 75.036113,156.78008 c -2.201511,19.96968 -3.16394,38.85551 -0.901452,67.1283 2.346506,9.7525 18.743197,39.33554 28.056579,44.61875 4.96287,4.91162 8.38916,3.04181 13.23003,4.79879 8.1321,4.73647 13.22119,4.17269 20.00378,6.31487 9.15484,2.1379 13.5416,0.79017 22.22483,-0.84632 7.97041,-1.39829 14.90301,-5.92285 19.98719,-8.30891 9.56927,-3.50269 15.81256,-6.83647 22.77231,-14.43012 7.97576,-7.16768 12.17929,-51.00018 18.26582,-76.49791 -0.92294,-10.3869 1.11657,-19.15677 0.18944,-29.54134 2.79382,-13.21757 2.62166,-28.05415 5.41169,-41.27024 C 216.60601,98.218998 208.9314,87.690565 201.25583,77.165218 174.53881,74.279256 147.81906,71.394778 121.09758,68.511894 101.9904,67.656036 97.589209,67.901235 77.861688,86.173653 75.124657,106.74632 77.776806,136.20767 75.036113,156.78008 Z" class="st4" id="path10" />
  <g id="path5044" style="" transform="translate(0,8.799107)">
    <path id="path39" d="m 106.62479,222.20846 c 0.0708,-0.78668 0.33944,-3.76917 1.02738,-6.55376 0.68794,-2.78459 1.9503,-5.79956 3.57311,-8.25509 1.62281,-2.45552 3.79041,-4.68775 6.06514,-6.51819 2.27474,-1.83045 4.81232,-3.40789 6.17643,-4.11431 1.3641,-0.70641 1.41315,-0.72711 1.40411,-0.71939 -0.009,0.008 -0.009,0.008 -1.15725,0.97246 -1.14823,0.96474 -3.47375,2.88622 -5.4691,4.90192 -1.99535,2.0157 -3.81447,4.26682 -5.15741,6.55745 -1.34294,2.29063 -2.3896,4.89774 -3.39504,7.64043 -1.00544,2.7427 -1.95357,5.59387 -2.49824,7.02305 -0.54467,1.42919 -0.57178,1.49201 -0.5733,1.4833 -0.002,-0.009 -0.003,-0.0494 -0.0349,-0.84032 -0.0318,-0.79087 -0.0317,-0.79087 0.0391,-1.57755 z" class="st7" />
  </g>
  <g id="path5044_3_" style="" transform="translate(0,8.799107)">
    <path id="path42" d="m 180.19707,219.51205 c -0.63403,0.46991 -3.09002,2.29015 -5.7351,3.8905 -2.64509,1.60036 -5.42437,2.94324 -8.24983,4.01842 -2.82546,1.07518 -5.71876,1.89872 -8.58736,2.55056 -2.8686,0.65184 -5.73862,1.14349 -7.88253,1.48015 -2.1439,0.33666 -3.64193,0.55062 -4.34338,0.63698 -0.70145,0.0864 -5.12651,0.5443 -6.84326,0.54507 -1.71676,7.7e-4 -4.81372,-0.31342 -9.29672,-0.96337 -4.48301,-0.64994 -10.20904,-1.73224 -13.07994,-2.31956 -2.87091,-0.58732 -2.87091,-0.58732 -2.89778,-0.61465 -0.0269,-0.0273 -0.12942,-0.27842 -0.14095,-0.34095 -0.0115,-0.0625 0.16284,-0.10033 1.66676,-0.2815 1.50392,-0.18117 4.49773,-0.2639 7.49506,-0.32926 2.99733,-0.0654 5.89682,-0.11169 8.73092,-0.25662 2.83409,-0.14493 5.71539,-0.39395 6.86951,-0.59348 1.15411,-0.19952 9.69486,-2.44451 11.10463,-2.80739 1.40978,-0.36289 4.35177,-1.10418 7.1398,-1.72002 2.78804,-0.61584 5.66164,-1.1624 8.45116,-1.6717 2.78952,-0.5093 5.59096,-0.99947 8.3875,-1.51104 2.79654,-0.51156 5.62881,-1.05225 7.249,-1.23491 1.62019,-0.18265 1.87898,-0.19177 1.88763,-0.18765 0.009,0.004 -0.14813,0.15325 -0.7196,0.69686 -0.57148,0.5436 -0.57148,0.54365 -1.20552,1.01356 z" class="st8" />
  </g>
  <g id="path5048" style="" transform="translate(0,8.799107)">
    <path id="path45" d="m 184.04071,216.57153 c -0.74577,-1.60165 -2.10384,-4.77543 -3.47281,-7.91988 -1.36898,-3.14445 -2.69393,-6.13621 -4.33977,-8.83783 -1.64584,-2.70161 -3.754,-5.31561 -6.06573,-7.45935 -2.31172,-2.14373 -5.12802,-4.0899 -6.58136,-5.07786 -1.45333,-0.98796 -1.51794,-1.03116 -1.52949,-1.03889 -0.0115,-0.008 0.032,0.007 1.63472,0.70816 1.60268,0.70077 4.6029,2.30546 7.2465,4.31018 2.64359,2.00472 5.23565,4.71802 7.13814,7.51909 1.90249,2.80108 3.39696,6.04794 4.44406,9.24286 1.0471,3.19493 1.74177,6.57192 2.00779,8.3205 0.26601,1.74857 0.271,1.79876 0.27724,1.86149 -0.27073,-0.53697 -0.0135,-0.0268 -0.75929,-1.62847 z" class="st7" />
  </g>
  <g id="path5075" style="" transform="translate(0,8.799107)">
    <path id="path50" d="m 104.20696,213.98626 c -0.093,-0.41375 -0.25458,-1.22144 -0.30277,-1.99793 -0.0482,-0.77649 0.0122,-1.5719 0.2974,-2.62606 0.2852,-1.05416 1.08262,-2.69522 2.02304,-3.97414 0.94041,-1.27892 2.18037,-2.44448 3.43823,-3.34769 1.25785,-0.9032 2.59752,-1.62179 3.32207,-1.90228 0.72454,-0.28049 0.79039,-0.29699 0.78252,-0.28689 -0.008,0.0101 -0.008,0.0101 -0.58708,0.57987 -0.5792,0.56977 -1.67745,1.58561 -2.64306,2.66625 -0.96562,1.08063 -1.80627,2.2252 -2.39963,3.32035 -0.59336,1.09516 -1.09931,2.43617 -1.4908,3.42873 -0.3915,0.99255 -0.68146,1.69669 -1.01418,2.3969 -0.33272,0.7002 -0.71662,1.40892 -0.96947,1.73305 -0.25286,0.32412 -0.30804,0.37385 -0.36323,0.42358 -0.0343,-0.13725 0,0 -0.093,-0.41374 z" class="st7" />
  </g>
  <g
 id="path5075_1_"
 style=""
 transform="translate(0,8.799107)"><path
 id="path53"
 d="m 151.12312,118.51246 c -0.39578,-0.3633 -1.15871,-1.1869 -1.64185,-1.99772 -0.48314,-0.81082 -0.83645,-1.86118 -0.96346,-2.87189 -0.12701,-1.01071 -0.039,-2.21145 0.16354,-3.19206 0.20253,-0.98061 0.52361,-1.90949 0.75764,-2.40795 0.23403,-0.49845 0.15661,-0.3711 0.26101,-0.54284 0,0 0.1,0.1 0.1,0.1 -0.0995,0.99894 -0.20026,2.01104 -0.20171,2.99329 -0.001,0.98226 0.086,1.88256 0.28633,2.75456 0.2003,0.872 0.50726,1.70396 0.81077,2.60585 0.3035,0.90189 0.5793,1.80714 0.71696,2.37672 0.13765,0.56958 0.13765,0.56958 0.1221,0.55746 -0.0156,-0.0121 -0.0156,-0.0121 -0.41133,-0.37542 z"
 class="st7" /></g><g
 id="path5075_3_"
 style=""
 transform="translate(0,8.799107)"><path
 id="path56"
 d="m 139.64155,110.06117 c 0.37196,0.53675 1.0339,1.65307 1.46855,2.75522 0.43465,1.10215 0.7099,2.36519 0.76638,3.59498 0.0565,1.22979 -0.11627,2.63325 -0.42305,3.80495 -0.30678,1.1717 -0.7801,2.32769 -1.03342,2.90568 -0.25331,0.578 -0.28668,0.578 -0.32001,0.578 0.006,-0.0321 0.0184,-0.0965 0.12875,-0.70429 0.11036,-0.6078 0.32402,-1.84625 0.40523,-3.01517 0.0812,-1.16893 0.0452,-2.27074 -0.10902,-3.39093 -0.15424,-1.12018 -0.44679,-2.31406 -0.68612,-3.46646 -0.23933,-1.1524 -0.4462,-2.36348 -0.51752,-2.99332 C 139.25,109.5 139.25,109.5 139.2598,109.51221 c 0.01,0.0122 0.01,0.0122 0.38175,0.54896 z"
 class="st7" /></g><path
 d="m 78.035155,137.94719 13.626959,-9.13066 43.951736,-4.51403 -15.06642,12.20841 z"
 class="st11"
 id="path5071_1_"
 style="opacity:0.7;fill:#d26f43;fill-opacity:1;stroke-width:0.992;stroke-miterlimit:15.1181;stroke-dasharray:none" /><path
 d="m 153.33457,120.54296 12.47538,11.90064 42.9921,12.92655 -13.62696,-15.38875 z"
 class="st11"
 id="path5073_1_"
 style="opacity:0.7;fill:#d26f43;fill-opacity:1;stroke-width:0.992;stroke-miterlimit:15.1181;stroke-dasharray:none" /><path
 id="path62"
 d="m 111.94112,228.16649 c -3.64665,3.79589 -6.14173,6.36068 -6.2377,10.25916 0,0.82074 -0.096,3.28294 1.05561,4.61663 2.01526,2.15442 5.27805,-1.33369 12.85925,-4.00108 4.12647,-1.43628 7.10137,-2.4622 10.93995,-2.05183 4.70226,0.51296 5.56594,2.66738 9.11663,2.05183 3.93454,-0.61555 3.93454,-3.28293 8.44487,-5.02699 4.51033,-1.64146 5.27805,0.61555 12.37942,-0.30777 4.03051,-0.51296 3.74262,-1.2311 9.30856,-2.05184 3.35876,-0.51295 5.75787,-0.82073 8.9247,-0.41036 3.45472,0.41036 4.3184,1.33369 4.70226,0.71814 1.43947,-2.35961 -6.90945,-20.21056 -16.40993,-20.00538 -4.3184,0.1026 -5.27805,3.7959 -14.8745,6.87365 -2.49508,0.82073 -4.99015,1.53887 -8.34891,1.74405 -5.85383,0.30778 -6.90944,-1.53887 -12.95521,-1.43628 -2.49507,0.10259 -5.85383,0.20518 -9.9803,2.05183 -4.12648,1.94925 -6.71752,4.71922 -8.9247,6.97624 z"
 class="st10"
 style="stroke-width:0.992228" /><path
 id="path66"
 d="m 113.18866,225.08874 c -3.64666,3.79589 -6.14173,6.36068 -6.2377,10.25916 0,0.82074 -0.096,3.28294 1.05561,4.61663 2.01526,2.15442 5.27805,-1.33369 12.85925,-4.00108 4.12647,-1.43628 7.10137,-2.4622 10.93995,-2.05183 4.70226,0.51296 5.56594,2.66738 9.11663,2.05183 3.93454,-0.61555 3.93454,-3.28293 8.44487,-5.02699 4.51033,-1.64146 5.27805,0.61555 12.37942,-0.30777 4.03051,-0.51296 3.74262,-1.2311 9.30856,-2.05184 3.35876,-0.51295 5.75787,-0.82073 8.9247,-0.41036 3.45472,0.41036 4.3184,1.33369 4.70226,0.71814 1.43946,-2.35961 -6.90945,-20.21056 -16.40993,-20.00538 -4.31841,0.1026 -5.27805,3.7959 -14.8745,6.87365 -2.49508,0.82073 -4.99015,1.53887 -8.34891,1.74405 -5.85384,0.30778 -6.90945,-1.53887 -12.95521,-1.43628 -2.49508,0.10259 -5.85383,0.20518 -9.98031,2.05183 -4.03051,1.94925 -6.62155,4.61663 -8.92469,6.97624 z"
 class="st12"
 style="stroke-width:0.992228" /><path
 id="path74"
 d="m 222.55769,172.11022 c -0.67175,1.2311 -2.68701,1.33369 -3.83858,1.12851 -2.78297,-0.41037 -4.51033,-3.07775 -7.5812,-7.89956 -1.15157,-1.74406 -1.72736,-2.56479 -1.82332,-3.28294 -0.86368,-4.10366 3.45472,-6.25809 4.79822,-11.0799 1.15158,-4.00107 -1.05561,-5.12958 -3.07086,-14.26024 -2.39911,-10.97731 0.096,-12.72137 -2.78297,-17.85095 -2.87894,-5.23217 -5.56594,-3.6933 -9.78838,-10.05398 -3.74262,-5.64255 -4.6063,-11.490273 -4.89419,-13.439515 -0.67175,-5.129583 0.67175,-5.129583 0.38386,-12.311 -0.38386,-7.591784 -1.91929,-9.643617 -0.38386,-12.618776 1.53543,-2.872566 4.99015,-4.719216 8.06102,-4.514033 1.82332,0.102592 3.45472,1.025917 8.73277,6.77105 5.37401,5.847725 8.06102,8.822884 9.02066,11.182492 2.87894,6.77105 -0.67175,8.925475 1.43947,17.850952 2.11122,9.33584 6.33365,8.72029 6.62155,15.69653 0.28789,7.18141 -4.22244,8.72029 -4.22244,18.67168 0,3.18034 0.47982,4.61663 0,8.20733 -0.67175,4.9244 -2.01525,5.33477 -2.78297,10.05399 -0.38386,2.4622 -1.05561,6.56587 0.38386,11.18249 1.05561,3.28293 2.59104,5.12958 1.72736,6.56587 z"
 class="st14"
 style="stroke-width:0.992228" /><path
 id="path76"
 d="m 61.241368,155.69555 c 0.191929,5.43736 -1.343503,8.92548 0.383858,10.25917 0.383858,0.30777 1.151574,0.71814 7.485231,-1.94924 4.414367,-1.84665 6.717514,-2.87257 7.389266,-4.20626 1.343503,-2.76998 -0.959645,-4.9244 -1.631397,-10.77213 -0.671751,-5.64254 1.151574,-6.36068 1.439468,-13.95247 0.383858,-8.00215 -1.535432,-8.82288 -1.151574,-15.28615 0.383858,-6.87365 9.980308,-8.00215 11.995562,-12.00323 5.278048,-10.156578 1.631397,-12.311003 7.965054,-22.57017 5.757874,-9.335842 6.429624,8.6177 12.091524,4.616625 4.99016,-3.590708 10.36417,-3.590708 11.80364,-3.488117 7.58119,0.102592 12.66731,-10.053983 19.76868,-8.309925 9.69242,2.257017 15.73818,12.105817 27.63778,12.618775 6.81348,0.307775 7.19733,4.411442 14.77853,8.207334 11.32381,5.539948 39.44141,-6.1555 44.81542,-7.489192 5.66191,-1.333692 -10.46013,-11.0799 -3.93454,-12.618775 6.62155,-1.538875 -4.70226,-2.359609 0.096,-4.821809 3.93455,-2.051833 6.52559,-7.796967 6.04576,-12.516184 -0.38385,-4.514033 -3.26279,-5.950316 -11.03591,-14.465425 -9.98031,-10.977309 -8.9247,-12.618775 -14.29871,-16.106892 -2.39912,-1.538875 -9.98031,-6.360684 -18.23326,-4.30885 -7.86909,2.051833 -7.2933,8.104742 -15.35432,11.387675 -4.3184,1.744058 -11.6117,0.820733 -26.00638,-1.128508 -5.75787,-0.820734 -9.88434,-1.538875 -14.5866,0.820733 -4.3184,2.154425 -3.74262,4.206258 -7.48523,6.258092 -6.81348,3.6933 -11.13188,-1.84665 -23.511303,-0.820733 -6.141728,0.512958 -10.268201,2.359608 -11.803633,3.180341 -3.646651,1.84665 -10.748024,5.232175 -11.803634,11.387676 -0.767715,4.719216 2.878935,5.950317 3.550687,13.336917 0.09596,1.128508 -11.803633,2.257017 -15.642213,8.309925 -3.934545,6.1555 4.414367,10.156575 -0.383858,16.312076 -0.383858,0.410366 -6.333657,8.309921 -4.990154,17.235401 0.86368,5.95032 4.222438,6.97624 3.934544,12.10582 -0.287893,5.43736 -4.126473,5.64254 -4.990154,10.97731 -1.247538,7.18141 5.278048,9.33584 5.661906,19.80019 z"
 class="st14"
 style="stroke-width:0.992228" /><path
 id="path78"
 d="m 225.53259,166.36508 c -0.76772,1.2311 -2.68701,1.3337 -3.83858,1.12851 -2.78297,-0.41036 -4.51033,-3.07775 -7.5812,-7.89956 -1.15157,-1.74405 -1.72736,-2.56479 -1.82332,-3.28293 -0.86368,-4.10367 3.45472,-6.25809 4.79822,-11.0799 1.15158,-4.00108 -1.05561,-5.12958 -3.07086,-14.26024 -2.39911,-10.97731 0.096,-12.72137 -2.78297,-17.85095 -2.87894,-5.23218 -5.56594,-3.6933 -9.78838,-10.05399 -3.74262,-5.642541 -4.6063,-11.490267 -4.89419,-13.439508 -0.67175,-5.129584 0.67175,-5.129584 0.38386,-12.311001 -0.38386,-7.591783 -1.91929,-9.643617 -0.38386,-12.618775 1.53543,-2.872567 4.99015,-4.719217 8.06102,-4.514034 1.82332,0.102592 3.45472,1.025917 8.73277,6.771051 5.37401,5.847725 8.06101,8.822883 9.02066,11.182492 2.87893,6.77105 -0.67175,8.925475 1.43947,17.85095 2.11122,9.335845 6.33365,8.720295 6.62155,15.696525 0.28789,7.18142 -4.22244,8.7203 -4.22244,18.67169 0,3.18034 0.47982,4.61662 0,8.20733 -0.67175,4.9244 -2.01525,5.33477 -2.78297,10.05398 -0.38386,2.46221 -1.05561,6.56587 0.38386,11.1825 0.95964,3.18034 2.59104,5.02699 1.72736,6.56586 z"
 class="st15"
 style="stroke-width:0.992228" /><path
 id="path80"
 d="m 64.216267,149.84782 c 0.191929,5.43736 -1.343503,8.92548 0.383858,10.25917 0.383858,0.30778 1.151574,0.71814 7.485231,-1.94924 4.414367,-1.84665 6.717515,-2.87257 7.389266,-4.20626 1.343503,-2.76997 -0.959645,-4.9244 -1.631396,-10.77212 -0.671752,-5.64255 1.151574,-6.36069 1.439467,-13.95247 0.383858,-8.00215 -1.535432,-8.82288 -1.151574,-15.28616 0.383858,-6.87364 9.980308,-8.00215 11.995563,-12.00323 5.278047,-10.156573 1.631396,-12.310998 7.965053,-22.570165 5.757865,-9.335842 6.429625,8.6177 12.091525,4.616625 4.99016,-3.590709 10.36417,-3.590709 11.80363,-3.590709 7.5812,0.102592 12.66732,-10.053983 19.76869,-8.309925 9.69242,2.257017 15.73818,12.105817 27.63778,12.618776 6.81348,0.307775 7.19733,4.411441 14.77853,8.207333 11.32381,5.53995 39.44141,-6.1555 44.81542,-7.489192 5.66191,-1.333691 -10.46013,-11.0799 -3.93454,-12.618775 6.62155,-1.538875 -4.70226,-2.359609 0.096,-4.821809 3.93454,-2.051833 6.52559,-7.796967 6.04576,-12.516183 -0.38385,-4.514034 -3.26279,-5.950317 -11.03591,-14.465426 -9.98031,-10.977309 -8.9247,-12.618775 -14.29871,-16.106892 -2.39912,-1.538875 -9.98031,-6.360684 -18.23326,-4.30885 -7.86909,2.051833 -7.2933,8.104742 -15.35432,11.387675 -4.3184,1.744059 -11.6117,0.820734 -26.00638,-1.128508 -5.75787,-0.820734 -9.88434,-1.538875 -14.5866,0.820733 -4.3184,2.154425 -3.74262,4.206259 -7.48523,6.258092 -6.81348,3.6933 -11.13188,-1.84665 -23.5113,-0.820733 -6.237696,0.410366 -10.364169,2.257016 -11.899601,3.07775 -3.646651,1.84665 -10.748024,5.232175 -11.803634,11.387675 -0.767716,4.719217 2.878935,5.950317 3.550687,13.336917 0.09596,1.128509 -11.803633,2.257017 -15.642213,8.309925 -3.934545,6.155501 4.414367,10.156576 -0.383858,16.312076 -0.383858,0.410367 -6.333657,8.309925 -4.990154,17.2354 0.86368,5.95032 4.222438,6.97624 3.934544,12.10582 -0.287893,5.43736 -4.126473,5.64254 -4.990154,10.97731 -1.247538,7.3866 5.278048,9.54102 5.75787,20.00537 z"
 class="st15"
 style="stroke-width:0.992228" />
 <path id="path82" d="m 57.121433,147.43236 c 0.191929,5.43736 -1.343503,8.92548 0.383858,10.25917 0.383858,0.30778 1.151574,0.71814 7.485231,-1.94924 4.414367,-1.84665 6.717515,-2.87257 7.389267,-4.20626 1.343503,-2.76997 -0.959645,-4.9244 -1.631397,-10.77212 -0.671751,-5.64255 1.151574,-6.36069 1.439468,-13.95247 0.383858,-8.00215 -1.535432,-8.82288 -1.151574,-15.28616 0.383858,-6.87364 9.980307,-8.00215 11.995562,-12.003229 5.278047,-10.156573 1.631396,-12.310998 7.965053,-22.570165 5.75787,-9.335842 6.429622,8.6177 12.091519,4.616625 4.99016,-3.590709 10.36417,-3.590709 11.80364,-3.488117 7.58119,0.102592 12.66731,-10.053984 19.76868,-8.309925 9.69242,2.257017 15.73818,12.105817 27.63778,12.618775 6.81348,0.307775 7.19734,4.411442 14.77853,8.207334 11.32381,5.53995 39.44141,-6.1555 44.81542,-7.489192 5.66191,-1.333692 -10.46013,-11.0799 -3.93454,-12.618776 6.62155,-1.538875 -4.70226,-2.359608 0.096,-4.821808 3.93455,-2.051833 6.52559,-7.796967 6.04577,-12.516184 -0.38386,-4.514033 -3.2628,-5.950317 -11.03592,-14.465425 -9.98031,-10.977309 -8.9247,-12.618776 -14.29871,-16.106892 -2.39911,-1.538875 -9.98031,-6.360684 -18.23326,-4.308851 -7.86909,2.051834 -7.2933,8.104742 -15.35432,11.387676 -4.3184,1.744058 -11.6117,0.820733 -26.00637,-1.128509 -5.75787,-0.820733 -9.88435,-1.538875 -14.58661,0.820734 -4.3184,2.154425 -3.74261,4.206258 -7.48523,6.258092 -6.81348,3.6933 -11.13188,-1.84665 -23.511297,-0.820734 -6.141728,0.512959 -10.268202,2.359609 -11.803634,3.180342 -3.646651,1.84665 -10.748023,5.232175 -11.803633,11.387675 -0.767716,4.719217 2.878935,5.950317 3.550687,13.336918 0.09596,1.128508 -11.803634,2.257016 -15.642214,8.309925 -3.934544,6.1555 4.414367,10.156575 -0.383858,16.312075 -0.383858,0.410367 -6.333657,8.309926 -4.990154,17.235396 0.863681,5.95032 4.222438,6.97624 3.934545,12.10582 -0.287894,5.43736 -4.126474,5.64255 -4.990154,10.97731 -1.247538,7.18142 5.278047,9.33584 5.661905,19.80019 z" class="st15" style="stroke-width:0.992228" />
 <circle r="0.69999999" cy="85.899109" cx="145.7" class="st19" id="freckle" />
 <g transform="matrix(2.8572867,0,0,2.8572867,-53.828861,-77.118929)" id="g4945">
   <ellipse ry="3.9000001" rx="4.1999998" cy="98.199997" cx="70.400002" class="st3" id="nosetip" />
   <ellipse ry="1.7" rx="3" cy="97.900002" cx="66.900002" class="st3" transform="matrix(0.2833,-0.959,0.959,0.2833,-45.9538,134.3189)" id="ellipse4909" />
   <ellipse ry="3.0999999" rx="1.6" cy="98.199997" cx="73.900002" class="st3" transform="matrix(0.99,-0.141,0.141,0.99,-13.1116,11.4057)" id="ellipse4911" />
   <path d="m 69.5,79.8 1.7,1.7 1,8.3 1.2,8.6 H 67.7 L 69,85.9 Z" class="st3" id="rect4913" />
  </g>
  <path class="st20" d="m 203.37264,138.03543 h -36.6 c -3.9,0 -7.8,8.3 -9.7,11.5 v -2.2 h -22.9 v 2.9 c -1.7,-3.6 -5.7,-12.3 -10,-12.3 H 87.572643 c -6,0 -11.8,4.9 -10.8,10.8 l 4.7,28.1 c 1,5.9 4.8,10.7 10.8,10.8 l 28.199997,0.5 c 6,0.1 10,-4.9 10.8,-10.8 l 3.3,-25 4.2,-2.8 4.6,-1.5 h 4.6 l 4.6,1.5 4.1,2.8 4.1,24.5 c 1,5.9 4.8,10.7 10.8,10.8 l 28.2,0.5 c 6,0.1 10,-4.9 10.8,-10.8 l 3.7,-28.6 c 0.6,-5.9 -5,-10.7 -10.9,-10.7 z" id="path99" style="opacity:0.85" />
  <g style="opacity:0.4;fill:#87cdde" id="g3367" transform="matrix(-0.85130563,-1.984835,1.1562378,-1.4613786,-38.470566,684.36522)">
    <path class="st7" d="m 104.20696,213.98626 c -0.093,-0.41375 -0.25458,-1.22144 -0.30277,-1.99793 -0.0482,-0.77649 0.0122,-1.5719 0.2974,-2.62606 0.2852,-1.05416 1.08262,-2.69522 2.02304,-3.97414 0.94041,-1.27892 2.18037,-2.44448 3.43823,-3.34769 1.25785,-0.9032 2.59752,-1.62179 3.32207,-1.90228 0.72454,-0.28049 0.79039,-0.29699 0.78252,-0.28689 -0.008,0.0101 -0.008,0.0101 -0.58708,0.57987 -0.5792,0.56977 -1.67745,1.58561 -2.64306,2.66625 -0.96562,1.08063 -1.80627,2.2252 -2.39963,3.32035 -0.59336,1.09516 -1.09931,2.43617 -1.4908,3.42873 -0.3915,0.99255 -0.68146,1.69669 -1.01418,2.3969 -0.33272,0.7002 -0.71662,1.40892 -0.96947,1.73305 -0.25286,0.32412 -0.30804,0.37385 -0.36323,0.42358 -0.0343,-0.13725 0,0 -0.093,-0.41374 z" id="path3365" style="fill:#87cdde" />
  </g>
  <g
 transform="matrix(0.85130563,-1.984835,-1.1562378,-1.4613786,330.59338,683.75691)"
 id="g3371"
 style="opacity:0.4;fill:#87cdde"><path
 style="fill:#87cdde"
 id="path3369"
 d="m 104.20696,213.98626 c -0.093,-0.41375 -0.25458,-1.22144 -0.30277,-1.99793 -0.0482,-0.77649 0.0122,-1.5719 0.2974,-2.62606 0.2852,-1.05416 1.08262,-2.69522 2.02304,-3.97414 0.94041,-1.27892 2.18037,-2.44448 3.43823,-3.34769 1.25785,-0.9032 2.59752,-1.62179 3.32207,-1.90228 0.72454,-0.28049 0.79039,-0.29699 0.78252,-0.28689 -0.008,0.0101 -0.008,0.0101 -0.58708,0.57987 -0.5792,0.56977 -1.67745,1.58561 -2.64306,2.66625 -0.96562,1.08063 -1.80627,2.2252 -2.39963,3.32035 -0.59336,1.09516 -1.09931,2.43617 -1.4908,3.42873 -0.3915,0.99255 -0.68146,1.69669 -1.01418,2.3969 -0.33272,0.7002 -0.71662,1.40892 -0.96947,1.73305 -0.25286,0.32412 -0.30804,0.37385 -0.36323,0.42358 -0.0343,-0.13725 0,0 -0.093,-0.41374 z"
 class="st7" /></g><path
 style="opacity:0.7;fill:#c6c4de;fill-opacity:1;stroke-width:0.992228"
 d="m 93.947786,38.695539 c -3.796537,-0.372125 -10.78207,-1.289549 -14.961546,1.677736 -5.971976,4.207889 0.241698,11.072583 -6.529678,14.953512 -0.510641,0.234512 -9.008552,5.294582 -11.143918,14.064373 -1.453187,5.834423 1.266466,8.054815 -0.941884,12.693637 -2.324866,4.923694 -5.955227,3.659732 -8.774185,8.27049 -3.873328,6.174659 3.13868,-0.111707 -0.467475,9.719143 -1.880754,5.10534 -16.693661,14.29863 -15.599751,16.18698 0.238776,0.43019 7.744388,7.07504 14.616437,7.00388 7.549103,2.13637 10.637737,-1.8851 11.764383,-2.86523 2.292128,-2.05521 0.976246,-4.9204 2.568237,-10.5872 1.514321,-5.4769 3.474039,-5.45195 6.614494,-12.369723 3.38463,-7.261269 1.917793,-8.746859 4.719859,-14.58379 2.957415,-6.21675 12.267603,-3.6288 15.647544,-6.569201 8.516718,-7.221594 7.276528,-18.058091 16.211057,-24.809391 -1.76763,-3.415367 -4.5886,0.658478 -6.55315,-2.652515 -1.265709,-2.13322 -2.451749,-4.324168 -3.901079,-6.337142 -0.44631,-0.619882 -1.158464,-0.995722 -1.737727,-1.493617 -0.897852,-0.771722 -1.368697,-1.574322 -1.531626,-2.301924 z"
 id="path144394" /><path
 style="opacity:0.7;fill:#c6c4de;fill-opacity:1;stroke-width:0.992228"
 d="m 54.026189,144.22444 c 3.796537,0.37213 10.78207,1.28955 14.961546,-1.67773 5.971976,-4.20789 -0.241698,-11.07258 6.529678,-14.95351 0.510641,-0.23452 9.008552,-5.29459 11.143918,-14.06438 1.453187,-5.83442 -1.266466,-8.05481 0.941884,-12.69363 2.324866,-4.9237 5.955227,-3.65974 8.774185,-8.27049 3.87333,-6.17467 -3.13868,0.1117 0.467475,-9.71915 1.880754,-5.10534 16.693665,-14.29863 15.599755,-16.18698 -0.23878,-0.43019 -7.74439,-7.07504 -14.616441,-7.00388 -7.549103,-2.13637 -10.637737,1.8851 -11.764383,2.86523 -2.292128,2.05521 -0.976246,4.9204 -2.568237,10.5872 -1.514321,5.4769 -3.474039,5.45195 -6.614494,12.36972 -3.38463,7.26128 -1.917793,8.74687 -4.719859,14.5838 -2.957415,6.21675 -12.267603,3.6288 -15.647544,6.5692 -8.516717,7.22159 -7.276527,18.05809 -16.211057,24.80939 1.76763,3.41537 4.5886,-0.65848 6.55315,2.65251 1.26571,2.13322 2.45175,4.32417 3.90108,6.33715 0.44631,0.61988 1.15846,0.99572 1.73773,1.49361 0.897848,0.77172 1.368693,1.57432 1.531622,2.30193 z"
 id="path144396" /><path
 style="opacity:0.7;fill:#c6c4de;fill-opacity:1;stroke-width:0.992228"
 d="m 181.998,53.529357 c 3.79654,-0.372125 10.78207,-1.289549 14.96154,1.677736 5.97198,4.207889 -0.24169,11.072583 6.52968,14.953512 0.51064,0.234512 9.00855,5.294582 11.14392,14.064373 1.45319,5.834423 -1.26647,8.054815 0.94188,12.693637 2.32487,4.923695 5.95523,3.659735 8.77419,8.270495 3.87333,6.17466 -3.13868,-0.11171 0.46747,9.71914 1.88076,5.10534 16.69367,14.29863 15.59976,16.18698 -0.23878,0.43019 -7.74439,7.07504 -14.61644,7.00388 -7.5491,2.13637 -10.63774,-1.8851 -11.76438,-2.86523 -2.29213,-2.05521 -0.97625,-4.9204 -2.56824,-10.5872 -1.51432,-5.4769 -3.47404,-5.45195 -6.6145,-12.36972 -3.38463,-7.26127 -1.91779,-8.74686 -4.71985,-14.583795 -2.95742,-6.21675 -12.26761,-3.6288 -15.64755,-6.569201 -8.51672,-7.221594 -7.27653,-18.058091 -16.21106,-24.809391 1.76763,-3.415367 4.5886,0.658478 6.55315,-2.652515 1.26571,-2.13322 2.45175,-4.324168 3.90108,-6.337142 0.44631,-0.619882 1.15847,-0.995722 1.73773,-1.493617 0.89785,-0.771722 1.3687,-1.574322 1.53163,-2.301924 z"
 id="path144398" /><path
 style="fill:#aaaaff;opacity:0.3"
 d="m 74.725618,165.00398 c 0,0 7.203567,19.68384 6.277813,28.4785 -0.925753,8.79466 7.406028,17.12644 7.406028,23.60672 0,6.48027 -1.851507,13.8863 5.554521,18.97794 7.40603,5.09165 9.25754,11.10904 15.73781,12.0348 6.48027,0.92575 65.7285,-6.48028 70.35727,-10.64617 4.62876,-4.16589 3.70301,0.46288 8.33178,-0.92575 4.62876,-1.38863 6.48027,-9.72041 11.10904,-15.27493 4.62877,-5.55452 9.25753,-17.58932 8.33178,-21.75521 -0.92575,-4.16589 3.21796,-25.59896 6.94315,-30.54987 3.72519,-4.9509 5.94927,0.84846 3.90039,10.60752 -2.04888,9.75906 -5.28902,50.49222 -7.14053,55.58386 -1.8515,5.09164 -12.03479,30.08699 -17.12643,31.9385 -5.09165,1.8515 -24.0696,4.62876 -29.16124,9.25753 -5.09164,4.62877 -5.09164,5.55452 -11.57192,5.55452 -6.48027,0 -26.54893,3.0115 -32.40137,-2.77726 -5.85244,-5.78876 -19.9037,-2.31438 -22.218085,-6.94315 -2.314384,-4.62877 -21.292331,-29.62411 -21.755208,-32.86425 -0.462876,-3.24014 -7.868904,-21.75521 -7.406028,-27.30973 0.462877,-5.55452 -0.925753,-31.47562 0.462877,-35.17863 1.38863,-3.70302 4.368352,-11.81494 4.368352,-11.81494 z"
 id="path144404" /><path
 style="opacity:0.3;fill:#bf672b;fill-opacity:1"
 d="m 76.114248,167.78124 c 0,0 7.203567,19.68384 6.277813,28.4785 -0.925753,8.79466 7.406028,17.12644 7.406028,23.60672 0,6.48027 -1.851507,13.8863 5.554521,18.97794 7.40603,5.09165 9.25754,11.10904 15.73781,12.0348 6.48027,0.92575 65.7285,-6.48028 70.35727,-10.64617 4.62876,-4.16589 3.70301,0.46288 8.33178,-0.92575 4.62876,-1.38863 6.48027,-9.72041 11.10904,-15.27493 4.62877,-5.55452 9.25753,-17.58932 8.33178,-21.75521 -0.92575,-4.16589 3.21796,-25.59896 6.94315,-30.54987 3.72519,-4.9509 5.94927,0.84846 3.90039,10.60752 -2.04888,9.75906 -5.28902,50.49222 -7.14053,55.58386 -1.8515,5.09164 -12.03479,30.08699 -17.12643,31.9385 -5.09165,1.8515 -24.0696,4.62876 -29.16124,9.25753 -5.09164,4.62877 -5.09164,5.55452 -11.57192,5.55452 -6.48027,0 -26.54893,3.0115 -32.40137,-2.77726 -5.85244,-5.78876 -19.9037,-2.31438 -22.21809,-6.94315 -2.314379,-4.62877 -21.292326,-29.62411 -21.755203,-32.86425 -0.462876,-3.24014 -7.868904,-21.75521 -7.406028,-27.30973 0.462877,-5.55452 -0.925753,-31.47562 0.462877,-35.17863 1.38863,-3.70302 4.368352,-11.81494 4.368352,-11.81494 z"
 id="path144406" /><g
 id="g144412">
 <path style="fill:#ffffff;stroke:#bf672b;stroke-width:3.21487;stroke-linejoin:round;stroke-miterlimit:31.2586;stroke-dasharray:none;stroke-opacity:1" id="path1495" d="m 126.6584,243.60003 c 0.73111,0.10772 1.42639,0.36986 2.10676,0.64834 0.75032,0.39254 1.54867,0.66171 2.36723,0.86848 1.40995,0.33221 2.75068,0.88038 4.15102,1.249 1.81897,0.48331 3.68391,0.70978 5.55736,0.83006 1.49971,0.14769 2.959,-0.0201 4.38759,-0.47376 1.28528,-0.46004 2.4857,-1.11771 3.72886,-1.67322 1.31505,-0.57979 2.67281,-1.05258 3.98558,-1.63685 1.6924,-0.79276 3.38758,-1.56692 5.13434,-2.23229 1.61644,-0.60906 3.27062,-1.11705 4.96582,-1.45111 1.28108,-0.21988 2.58257,-0.25868 3.87931,-0.27466 1.42441,-0.006 0.88036,0.24214 2.22159,-0.8333 -0.69272,0.23734 -1.38687,0.46086 -2.05077,0.77222 -1.80541,0.963 -2.30421,1.19417 -2.9037,3.03851 -0.26487,1.07811 -0.49412,2.16666 -0.69193,3.25937 -0.10388,1.26268 -0.45351,2.48278 -0.92924,3.65163 -0.28347,0.70126 -0.84389,0.92669 0.9447,-0.27613 0.0639,-0.043 -0.0703,-0.13741 -0.0979,-0.20932 -0.0288,-0.0749 -0.0506,-0.15224 -0.076,-0.22835 -0.13932,-0.41309 -0.26987,-0.88121 -0.56277,-1.21502 -0.28261,-0.25069 -0.68347,-0.23742 -1.04011,-0.24982 -1.0142,0.009 -2.01733,0.62455 -2.63702,1.40207 -0.95465,1.41053 -1.7157,2.94865 -2.53597,4.44162 -0.63274,0.98432 -0.98739,2.17876 -1.78195,3.05911 -0.1376,0.15247 -0.63753,0.51729 -0.4702,0.39821 0.26154,-0.18615 0.5023,-0.39986 0.75346,-0.59979 -1.21849,-0.23473 -1.99209,-1.3428 -2.80017,-2.19795 -0.75564,-0.80175 -1.62816,-1.45639 -2.60311,-1.96389 -1.2947,-0.63395 -1.52934,-0.15148 -2.87755,0.64003 -0.38985,0.42965 -0.67197,0.9231 -0.89497,1.45458 -0.32705,0.66277 -0.64308,1.32512 -1.05353,1.9417 0.25349,-0.0661 -0.63328,0.51715 -0.4661,0.39926 0.30157,-0.21268 0.72257,-0.31415 0.90815,-0.63311 0.0837,-0.14386 -0.33348,-0.0325 -0.49276,-0.0808 -0.4911,-0.14894 -0.8979,-0.39785 -1.34721,-0.63857 -1.17711,-0.73257 -2.23301,-1.63405 -3.36536,-2.43694 -0.88097,-0.58885 -1.81167,-1.09771 -2.70985,-1.65974 -0.68337,-0.38834 -1.33191,-0.8167 -1.97538,-1.26498 -0.50376,-0.33433 -1.01578,-0.66824 -1.57896,-0.89291 -0.73109,-0.1334 -1.43944,0.18125 -2.1486,0.32435 -0.75923,0.11619 -1.52796,0.15542 -2.29498,0.17614 -0.78471,-0.0707 -1.11752,-0.89643 -1.49564,-1.48481 -0.41287,-0.86353 -1.08501,-1.57939 -1.47741,-2.4505 0,0 -1.27932,0.72269 -1.27932,0.72269 v 0 c 0.40651,0.87265 1.09719,1.58126 1.50904,2.45522 0.40179,0.63997 0.73392,1.48333 1.55482,1.62612 0.77357,-0.0235 1.54753,-0.0663 2.31581,-0.16277 0.70041,-0.1229 1.37991,-0.43065 2.09624,-0.38626 0.56111,0.20416 1.06337,0.53654 1.55904,0.86482 0.65419,0.43645 1.30107,0.87442 1.9847,1.26671 0.90439,0.55416 1.83788,1.05928 2.7265,1.63821 1.13624,0.8076 2.19307,1.71714 3.37732,2.44949 0.26854,0.14874 1.55529,0.92102 1.87648,0.82236 0.8543,-0.2624 1.54057,-0.58969 2.06493,-1.24275 0.39989,-0.63017 0.72296,-1.30072 1.05296,-1.96941 0.22167,-0.51184 0.50629,-0.99826 0.92474,-1.37591 -0.34964,0.19172 -0.70207,0.37847 -1.04893,0.57517 -0.0668,0.0379 0.1342,-0.0785 0.20838,-0.0985 0.40451,-0.10901 0.76929,0.053 1.12719,0.2229 0.97358,0.48245 1.83732,1.12757 2.59091,1.91256 0.84645,0.89612 1.63186,1.99399 2.87499,2.32941 0.58161,-0.27627 1.18572,-0.50943 1.74483,-0.8288 0.93361,-0.53331 1.60528,-2.61092 2.20988,-3.49199 0.82233,-1.49612 1.57909,-3.04856 2.58468,-4.43016 0.54015,-0.58251 0.39721,-0.36535 -0.77845,0.27516 -0.0785,0.0428 0.80541,-0.3802 0.87105,-0.24199 0.31937,0.005 0.69656,-0.028 0.97273,0.15319 0.29754,0.29693 0.39826,0.77372 0.53664,1.15672 0.006,0.0174 0.19149,0.6034 0.25074,0.58093 1.20997,-0.4586 1.27552,-0.39287 1.59373,-1.19088 0.45155,-1.18408 0.78096,-2.41274 0.91429,-3.676 0.19943,-1.08406 0.41183,-2.16885 0.6906,-3.23505 0.18632,-0.52433 0.36542,-1.06235 0.7316,-1.4964 0.29394,-0.34841 0.87027,-0.63685 0.61461,-0.52086 -0.31146,0.1413 -0.59575,0.33611 -0.89362,0.50416 0.65036,-0.32621 1.33517,-0.5495 2.02516,-0.77518 1.84616,-1.30275 1.55888,-0.89425 0.12228,-0.93231 -1.30547,0.0223 -2.61569,0.0521 -3.90715,0.2635 -1.70428,0.32457 -3.36543,0.83428 -4.99066,1.43919 -1.74626,0.66195 -3.44401,1.42397 -5.13303,2.22056 -1.30637,0.5913 -2.66328,1.0565 -3.9768,1.63161 -1.25092,0.53579 -2.43938,1.21854 -3.72176,1.68562 -1.41862,0.47282 -2.87109,0.66997 -4.36956,0.52783 -1.86522,-0.11551 -3.72561,-0.32457 -5.5355,-0.81187 -1.3988,-0.36156 -2.73037,-0.91677 -4.13255,-1.26385 -0.81241,-0.19761 -1.60685,-0.46124 -2.34668,-0.85688 -0.68554,-0.27943 -1.38168,-0.55341 -2.11544,-0.67632 0,0 -1.21006,0.84318 -1.21006,0.84318 z" />
 <path
 d="m 129.44047,243.60003 c 0.73111,0.10772 1.42639,0.36986 2.10676,0.64834 0.75032,0.39254 1.54867,0.66171 2.36723,0.86848 1.40995,0.33221 2.75068,0.88038 4.15102,1.249 1.81897,0.48331 3.68391,0.70978 5.55736,0.83006 1.49971,0.14769 2.959,-0.0201 4.38759,-0.47376 1.28528,-0.46004 2.4857,-1.11771 3.72886,-1.67322 1.31505,-0.57979 2.67281,-1.05258 3.98558,-1.63685 1.6924,-0.79276 3.38758,-1.56692 5.13434,-2.23229 1.61644,-0.60906 3.27062,-1.11705 4.96582,-1.45111 1.28108,-0.21988 2.58257,-0.25868 3.87931,-0.27466 1.42441,-0.006 0.88036,0.24214 2.22159,-0.8333 -0.69272,0.23734 -1.38687,0.46086 -2.05077,0.77222 -1.80541,0.963 -2.30421,1.19417 -2.9037,3.03851 -0.26487,1.07811 -0.49412,2.16666 -0.69193,3.25937 -0.10388,1.26268 -0.45351,2.48278 -0.92924,3.65163 -0.28347,0.70126 -0.84389,0.92669 0.9447,-0.27613 0.0639,-0.043 -0.0703,-0.13741 -0.0979,-0.20932 -0.0288,-0.0749 -0.0506,-0.15224 -0.076,-0.22835 -0.13932,-0.41309 -0.26987,-0.88121 -0.56277,-1.21502 -0.28261,-0.25069 -0.68347,-0.23742 -1.04011,-0.24982 -1.0142,0.009 -2.01733,0.62455 -2.63702,1.40207 -0.95465,1.41053 -1.7157,2.94865 -2.53597,4.44162 -0.63274,0.98432 -0.98739,2.17876 -1.78195,3.05911 -0.1376,0.15247 -0.63753,0.51729 -0.4702,0.39821 0.26154,-0.18615 0.5023,-0.39986 0.75346,-0.59979 -1.21849,-0.23473 -1.99209,-1.3428 -2.80017,-2.19795 -0.75564,-0.80175 -1.62816,-1.45639 -2.60311,-1.96389 -1.2947,-0.63395 -1.52934,-0.15148 -2.87755,0.64003 -0.38985,0.42965 -0.67197,0.9231 -0.89497,1.45458 -0.32705,0.66277 -0.64308,1.32512 -1.05353,1.9417 0.25349,-0.0661 -0.63328,0.51715 -0.4661,0.39926 0.30157,-0.21268 0.72257,-0.31415 0.90815,-0.63311 0.0837,-0.14386 -0.33348,-0.0325 -0.49276,-0.0808 -0.4911,-0.14894 -0.8979,-0.39785 -1.34721,-0.63857 -1.17711,-0.73257 -2.23301,-1.63405 -3.36536,-2.43694 -0.88097,-0.58885 -1.81167,-1.09771 -2.70985,-1.65974 -0.68337,-0.38834 -1.33191,-0.8167 -1.97538,-1.26498 -0.50376,-0.33433 -1.01578,-0.66824 -1.57896,-0.89291 -0.73109,-0.1334 -1.43944,0.18125 -2.1486,0.32435 -0.75923,0.11619 -1.52796,0.15542 -2.29498,0.17614 -0.78471,-0.0707 -1.11752,-0.89643 -1.49564,-1.48481 -0.41287,-0.86353 -1.08501,-1.57939 -1.47741,-2.4505 0,0 -1.27932,0.72269 -1.27932,0.72269 v 0 c 0.40651,0.87265 1.09719,1.58126 1.50904,2.45522 0.40179,0.63997 0.73392,1.48333 1.55482,1.62612 0.77357,-0.0235 1.54753,-0.0663 2.31581,-0.16277 0.70041,-0.1229 1.37991,-0.43065 2.09624,-0.38626 0.56111,0.20416 1.06337,0.53654 1.55904,0.86482 0.65419,0.43645 1.30107,0.87442 1.9847,1.26671 0.90439,0.55416 1.83788,1.05928 2.7265,1.63821 1.13624,0.8076 2.19307,1.71714 3.37732,2.44949 0.26854,0.14874 1.55529,0.92102 1.87648,0.82236 0.8543,-0.2624 1.54057,-0.58969 2.06493,-1.24275 0.39989,-0.63017 0.72296,-1.30072 1.05296,-1.96941 0.22167,-0.51184 0.50629,-0.99826 0.92474,-1.37591 -0.34964,0.19172 -0.70207,0.37847 -1.04893,0.57517 -0.0668,0.0379 0.1342,-0.0785 0.20838,-0.0985 0.40451,-0.10901 0.76929,0.053 1.12719,0.2229 0.97358,0.48245 1.83732,1.12757 2.59091,1.91256 0.84645,0.89612 1.63186,1.99399 2.87499,2.32941 0.58161,-0.27627 1.18572,-0.50943 1.74483,-0.8288 0.93361,-0.53331 1.60528,-2.61092 2.20988,-3.49199 0.82233,-1.49612 1.57909,-3.04856 2.58468,-4.43016 0.54015,-0.58251 0.39721,-0.36535 -0.77845,0.27516 -0.0785,0.0428 0.80541,-0.3802 0.87105,-0.24199 0.31937,0.005 0.69656,-0.028 0.97273,0.15319 0.29754,0.29693 0.39826,0.77372 0.53664,1.15672 0.006,0.0174 0.19149,0.6034 0.25074,0.58093 1.20997,-0.4586 1.27552,-0.39287 1.59373,-1.19088 0.45155,-1.18408 0.78096,-2.41274 0.91429,-3.676 0.19943,-1.08406 0.41183,-2.16885 0.6906,-3.23505 0.18632,-0.52433 0.36542,-1.06235 0.7316,-1.4964 0.29394,-0.34841 0.87027,-0.63685 0.61461,-0.52086 -0.31146,0.1413 -0.59575,0.33611 -0.89362,0.50416 0.65036,-0.32621 1.33517,-0.5495 2.02516,-0.77518 1.84616,-1.30275 1.55888,-0.89425 0.12228,-0.93231 -1.30547,0.0223 -2.61569,0.0521 -3.90715,0.2635 -1.70428,0.32457 -3.36543,0.83428 -4.99066,1.43919 -1.74626,0.66195 -3.44401,1.42397 -5.13303,2.22056 -1.30637,0.5913 -2.66328,1.0565 -3.9768,1.63161 -1.25092,0.53579 -2.43938,1.21854 -3.72176,1.68562 -1.41862,0.47282 -2.87109,0.66997 -4.36956,0.52783 -1.86522,-0.11551 -3.72561,-0.32457 -5.5355,-0.81187 -1.3988,-0.36156 -2.73037,-0.91677 -4.13255,-1.26385 -0.81241,-0.19761 -1.60685,-0.46124 -2.34668,-0.85688 -0.68554,-0.27943 -1.38168,-0.55341 -2.11544,-0.67632 0,0 -1.21006,0.84318 -1.21006,0.84318 z"
 id="path1513"
 style="opacity:0.5;fill:#ffffff;stroke:#bf672b;stroke-width:3.21487;stroke-linejoin:round;stroke-miterlimit:31.2586;stroke-dasharray:none;stroke-opacity:1" /><path
 style="opacity:0.5;fill:#ffffff;stroke:#bf672b;stroke-width:3.21487;stroke-linejoin:round;stroke-miterlimit:31.2586;stroke-dasharray:none;stroke-opacity:1"
 id="path1515"
 d="m 123.41265,244.06371 c 0.73111,0.10772 1.42639,0.36986 2.10676,0.64834 0.75032,0.39254 1.54867,0.66171 2.36723,0.86848 1.40995,0.33221 2.75068,0.88038 4.15102,1.249 1.81897,0.48331 3.68391,0.70978 5.55736,0.83006 1.49971,0.14769 2.959,-0.0201 4.38759,-0.47376 1.28528,-0.46004 2.4857,-1.11771 3.72886,-1.67322 1.31505,-0.57979 2.67281,-1.05258 3.98558,-1.63685 1.6924,-0.79276 3.38758,-1.56692 5.13434,-2.23229 1.61644,-0.60906 3.27062,-1.11705 4.96582,-1.45111 1.28108,-0.21988 2.58257,-0.25868 3.87931,-0.27466 1.42441,-0.006 0.88036,0.24214 2.22159,-0.8333 -0.69272,0.23734 -1.38687,0.46086 -2.05077,0.77222 -1.80541,0.963 -2.30421,1.19417 -2.9037,3.03851 -0.26487,1.07811 -0.49412,2.16666 -0.69193,3.25937 -0.10388,1.26268 -0.45351,2.48278 -0.92924,3.65163 -0.28347,0.70126 -0.84389,0.92669 0.9447,-0.27613 0.0639,-0.043 -0.0703,-0.13741 -0.0979,-0.20932 -0.0288,-0.0749 -0.0506,-0.15224 -0.076,-0.22835 -0.13932,-0.41309 -0.26987,-0.88121 -0.56277,-1.21502 -0.28261,-0.25069 -0.68347,-0.23742 -1.04011,-0.24982 -1.0142,0.009 -2.01733,0.62455 -2.63702,1.40207 -0.95465,1.41053 -1.7157,2.94865 -2.53597,4.44162 -0.63274,0.98432 -0.98739,2.17876 -1.78195,3.05911 -0.1376,0.15247 -0.63753,0.51729 -0.4702,0.39821 0.26154,-0.18615 0.5023,-0.39986 0.75346,-0.59979 -1.21849,-0.23473 -1.99209,-1.3428 -2.80017,-2.19795 -0.75564,-0.80175 -1.62816,-1.45639 -2.60311,-1.96389 -1.2947,-0.63395 -1.52934,-0.15148 -2.87755,0.64003 -0.38985,0.42965 -0.67197,0.9231 -0.89497,1.45458 -0.32705,0.66277 -0.64308,1.32512 -1.05353,1.9417 0.25349,-0.0661 -0.63328,0.51715 -0.4661,0.39926 0.30157,-0.21268 0.72257,-0.31415 0.90815,-0.63311 0.0837,-0.14386 -0.33348,-0.0325 -0.49276,-0.0808 -0.4911,-0.14894 -0.8979,-0.39785 -1.34721,-0.63857 -1.17711,-0.73257 -2.23301,-1.63405 -3.36536,-2.43694 -0.88097,-0.58885 -1.81167,-1.09771 -2.70985,-1.65974 -0.68337,-0.38834 -1.33191,-0.8167 -1.97538,-1.26498 -0.50376,-0.33433 -1.01578,-0.66824 -1.57896,-0.89291 -0.73109,-0.1334 -1.43944,0.18125 -2.1486,0.32435 -0.75923,0.11619 -1.52796,0.15542 -2.29498,0.17614 -0.78471,-0.0707 -1.11752,-0.89643 -1.49564,-1.48481 -0.41287,-0.86353 -1.08501,-1.57939 -1.47741,-2.4505 0,0 -1.27932,0.72269 -1.27932,0.72269 v 0 c 0.40651,0.87265 1.09719,1.58126 1.50904,2.45522 0.40179,0.63997 0.73392,1.48333 1.55482,1.62612 0.77357,-0.0235 1.54753,-0.0663 2.31581,-0.16277 0.70041,-0.1229 1.37991,-0.43065 2.09624,-0.38626 0.56111,0.20416 1.06337,0.53654 1.55904,0.86482 0.65419,0.43645 1.30107,0.87442 1.9847,1.26671 0.90439,0.55416 1.83788,1.05928 2.7265,1.63821 1.13624,0.8076 2.19307,1.71714 3.37732,2.44949 0.26854,0.14874 1.55529,0.92102 1.87648,0.82236 0.8543,-0.2624 1.54057,-0.58969 2.06493,-1.24275 0.39989,-0.63017 0.72296,-1.30072 1.05296,-1.96941 0.22167,-0.51184 0.50629,-0.99826 0.92474,-1.37591 -0.34964,0.19172 -0.70207,0.37847 -1.04893,0.57517 -0.0668,0.0379 0.1342,-0.0785 0.20838,-0.0985 0.40451,-0.10901 0.76929,0.053 1.12719,0.2229 0.97358,0.48245 1.83732,1.12757 2.59091,1.91256 0.84645,0.89612 1.63186,1.99399 2.87499,2.32941 0.58161,-0.27627 1.18572,-0.50943 1.74483,-0.8288 0.93361,-0.53331 1.60528,-2.61092 2.20988,-3.49199 0.82233,-1.49612 1.57909,-3.04856 2.58468,-4.43016 0.54015,-0.58251 0.39721,-0.36535 -0.77845,0.27516 -0.0785,0.0428 0.80541,-0.3802 0.87105,-0.24199 0.31937,0.005 0.69656,-0.028 0.97273,0.15319 0.29754,0.29693 0.39826,0.77372 0.53664,1.15672 0.006,0.0174 0.19149,0.6034 0.25074,0.58093 1.20997,-0.4586 1.27552,-0.39287 1.59373,-1.19088 0.45155,-1.18408 0.78096,-2.41274 0.91429,-3.676 0.19943,-1.08406 0.41183,-2.16885 0.6906,-3.23505 0.18632,-0.52433 0.36542,-1.06235 0.7316,-1.4964 0.29394,-0.34841 0.87027,-0.63685 0.61461,-0.52086 -0.31146,0.1413 -0.59575,0.33611 -0.89362,0.50416 0.65036,-0.32621 1.33517,-0.5495 2.02516,-0.77518 1.84616,-1.30275 1.55888,-0.89425 0.12228,-0.93231 -1.30547,0.0223 -2.61569,0.0521 -3.90715,0.2635 -1.70428,0.32457 -3.36543,0.83428 -4.99066,1.43919 -1.74626,0.66195 -3.44401,1.42397 -5.13303,2.22056 -1.30637,0.5913 -2.66328,1.0565 -3.9768,1.63161 -1.25092,0.53579 -2.43938,1.21854 -3.72176,1.68562 -1.41862,0.47282 -2.87109,0.66997 -4.36956,0.52783 -1.86522,-0.11551 -3.72561,-0.32457 -5.5355,-0.81187 -1.3988,-0.36156 -2.73037,-0.91677 -4.13255,-1.26385 -0.81241,-0.19761 -1.60685,-0.46124 -2.34668,-0.85688 -0.68554,-0.27943 -1.38168,-0.55341 -2.11544,-0.67632 0,0 -1.21006,0.84318 -1.21006,0.84318 z" /><path
 id="path1517"
 style="opacity:1;fill:#bf672b;stroke:none;stroke-width:2.20933;stroke-linejoin:round;stroke-miterlimit:31.2586;stroke-dasharray:none;stroke-opacity:1"
 d="m 162.60674,240.84794 a 4.0350011,11.894687 63.234909 0 0 -9.71484,2.9082 4.0350011,11.894687 63.234909 0 0 -5.89844,3.87891 7.4943886,2.4289562 14.261285 0 0 -4.16016,0.50781 7.4943886,2.4289562 14.261285 0 0 -0.59179,-0.15234 7.4943886,2.4289562 14.261285 0 0 -1.33985,-0.28321 7.4943886,2.4289562 14.261285 0 0 -6.28515,-2.89258 7.4943886,2.4289562 14.261285 0 0 -7.64453,0.64063 7.4943886,2.4289562 14.261285 0 0 6.91015,4.18164 7.4943886,2.4289562 14.261285 0 0 1.3418,0.2832 7.4943886,2.4289562 14.261285 0 0 6.2832,2.89453 7.4943886,2.4289562 14.261285 0 0 3.42578,0.54493 4.0350011,11.894687 63.234909 0 0 5.625,-0.11719 7.4943886,2.4289562 14.261285 0 0 6.37891,-0.91016 7.4943886,2.4289562 14.261285 0 0 -0.61133,-1.27148 4.0350011,11.894687 63.234909 0 0 0.42188,-0.21094 4.0350011,11.894687 63.234909 0 0 8.67383,-8.9414 4.0350011,11.894687 63.234909 0 0 -2.81446,-1.06055 z" /></g><path
 style="opacity:0.7;fill:#c6c4de;fill-opacity:1;stroke-width:0.992228"
 d="m 54.026189,131.20506 c 3.796537,0.37213 10.78207,1.28955 14.961546,-1.67773 5.971976,-4.20789 -0.241698,-11.07258 6.529678,-14.95351 0.510641,-0.23452 9.008552,-5.29459 11.143918,-14.06438 1.453187,-5.834421 -1.266466,-8.054811 0.941884,-12.693631 2.324866,-4.9237 5.955227,-3.65974 8.774185,-8.27049 3.87333,-6.17467 -3.13868,0.1117 0.467475,-9.71915 1.880754,-5.10534 16.693665,-14.29863 15.599755,-16.18698 -0.23878,-0.43019 -7.74439,-7.07504 -14.616441,-7.00388 -7.549103,-2.13637 -10.637737,1.8851 -11.764383,2.86523 -2.292128,2.05521 -0.976246,4.9204 -2.568237,10.5872 -1.514321,5.4769 -3.474039,5.45195 -6.614494,12.36972 -3.38463,7.26128 -1.917793,8.74687 -4.719859,14.5838 -2.957415,6.21675 -12.267603,3.6288 -15.647544,6.5692 -8.516717,7.221591 -7.276527,18.058091 -16.211057,24.809391 1.76763,3.41537 4.5886,-0.65848 6.55315,2.65251 1.26571,2.13322 2.45175,4.32417 3.90108,6.33715 0.44631,0.61988 1.15846,0.99572 1.73773,1.49361 0.897848,0.77172 1.368693,1.57432 1.531622,2.30193 z"
 id="path144414" />
 <polygon
 class="st21"
 points="215.1,138.3 214.7,138.9 215.1,139.6 215.9,139.6 216.2,138.9 215.9,138.3 "
 id="polygon101"
 transform="translate(0,8.799107)" />
 <polygon class="st21" points="77.2,138 76.8,138.7 77.2,139.3 78,139.3 78.4,138.7 78,138" id="polygon103" transform="translate(0,8.799107)" />
  <g id="g-eye-left">
    <circle id="eye-left" cx="106.25901" cy="153.40784" r="13.027949" style="fill:#ffffff;stroke:none;stroke-width:12.5082;stroke-linecap:round;stroke-linejoin:round;stroke-miterlimit:31.2586" />
    <circle style="fill:#2a7fff;stroke:#ff8080;stroke-width:1;stroke-linecap:round;stroke-linejoin:round;stroke-miterlimit:31.25860023;stroke-dasharray:none" r="4.6811914" cy="153.40784" cx="106.25901" class="st22" id="pupil-left" />
  </g>
  <g id="g-eye-right">
    <circle id="eye-right" cx="184.76869" cy="152.83876" r="13.027949" style="fill:#ffffff;stroke:none;stroke-width:12.5082;stroke-linecap:round;stroke-linejoin:round;stroke-miterlimit:31.2586" />
    <circle id="pupil-right" class="st5" cx="184.76869" cy="152.83876" r="4.6811914" style="fill:#2a7fff;stroke:#ff8080;stroke-width:1;stroke-linecap:round;stroke-linejoin:round;stroke-miterlimit:31.25860023;stroke-dasharray:none" />
  </g>
</g>
</svg>
